<svg data-v-423bf9ae="" xmlns="http://www.w3.org/2000/svg" viewBox="0 0 534 90" class="iconLeftSlogan"><!----><!----><!----><g data-v-423bf9ae="" id="6fd47858-787d-48dd-a682-06f5e658d0b7" fill="#000000" transform="matrix(5.917160119482044,0,0,5.917160119482044,154.97820232433907,-42.89941086624482)"><path d="M6.10 17.18L5.53 15.22L2.18 15.22L1.61 17.18L0.21 17.18L2.80 8.43L4.91 8.43L7.50 17.18L6.10 17.18ZM2.51 14.11L5.21 14.11L3.92 9.72L3.79 9.72L2.51 14.11ZM11.07 17.32L11.07 17.32Q10.04 17.32 9.51 17.01L9.51 17.01L9.51 17.01Q8.97 16.70 8.76 15.94L8.76 15.94L8.76 15.94Q8.55 15.18 8.55 13.68L8.55 13.68L8.55 13.68Q8.55 12.18 8.76 11.41L8.76 11.41L8.76 11.41Q8.97 10.64 9.51 10.34L9.51 10.34L9.51 10.34Q10.04 10.04 11.07 10.04L11.07 10.04L11.07 10.04Q11.65 10.04 12.27 10.11L12.27 10.11L12.27 10.11Q12.89 10.18 13.34 10.29L13.34 10.29L13.17 11.35L13.17 11.35Q12.17 11.14 11.23 11.14L11.23 11.14L11.23 11.14Q10.54 11.14 10.28 11.40L10.28 11.40L10.28 11.40Q10.01 11.66 10.01 12.32L10.01 12.32L10.01 16.06L10.01 16.06Q10.51 16.21 11.44 16.21L11.44 16.21L11.44 16.21Q11.89 16.21 12.31 16.14L12.31 16.14L12.31 16.14Q12.74 16.06 13.34 15.88L13.34 15.88L13.50 16.90L13.50 16.90Q13.02 17.09 12.38 17.21L12.38 17.21L12.38 17.21Q11.75 17.32 11.07 17.32L11.07 17.32ZM15.97 10.18L16.46 11.28L16.46 11.28Q17.09 10.72 17.54 10.42L17.54 10.42L17.54 10.42Q17.99 10.11 18.38 9.97L18.38 9.97L18.52 11.34L18.52 11.34Q18.06 11.48 17.56 11.73L17.56 11.73L17.56 11.73Q17.07 11.97 16.72 12.24L16.72 12.24L16.72 17.18L15.32 17.18L15.32 10.18L15.97 10.18ZM22.54 16.21L22.54 16.21Q23.11 16.21 23.66 16.14L23.66 16.14L23.66 16.14Q24.21 16.06 24.96 15.88L24.96 15.88L25.14 16.90L25.14 16.90Q24.63 17.09 23.86 17.21L23.86 17.21L23.86 17.21Q23.10 17.32 22.29 17.32L22.29 17.32L22.29 17.32Q21.20 17.32 20.62 17.00L20.62 17.00L20.62 17.00Q20.05 16.69 19.81 15.92L19.81 15.92L19.81 15.92Q19.57 15.15 19.57 13.68L19.57 13.68L19.57 13.68Q19.57 12.26 19.84 11.49L19.84 11.49L19.84 11.49Q20.12 10.71 20.75 10.37L20.75 10.37L20.75 10.37Q21.38 10.04 22.53 10.04L22.53 10.04L22.53 10.04Q23.66 10.04 24.25 10.22L24.25 10.22L24.25 10.22Q24.85 10.40 25.09 10.84L25.09 10.84L25.09 10.84Q25.33 11.28 25.33 12.14L25.33 12.14L25.33 12.14Q25.33 13.16 25.03 13.61L25.03 13.61L25.03 13.61Q24.74 14.06 23.88 14.21L23.88 14.21L23.88 14.21Q23.02 14.36 21.04 14.36L21.04 14.36L21.04 16.06L21.04 16.06Q21.60 16.21 22.54 16.21L22.54 16.21ZM22.20 11.19L22.20 11.19Q21.53 11.19 21.29 11.35L21.29 11.35L21.29 11.35Q21.04 11.52 21.04 12.00L21.04 12.00L21.04 13.45L22.89 13.45L22.89 13.45Q23.58 13.45 23.82 13.29L23.82 13.29L23.82 13.29Q24.07 13.12 24.07 12.64L24.07 12.64L24.07 11.19L22.20 11.19ZM27.09 12.05L27.09 12.05Q27.09 10.98 27.73 10.47L27.73 10.47L27.73 10.47Q28.36 9.97 29.74 9.97L29.74 9.97L29.74 9.97Q30.95 9.97 32.06 10.28L32.06 10.28L31.86 11.30L31.86 11.30Q31.51 11.20 31.04 11.14L31.04 11.14L31.04 11.14Q30.56 11.07 30.16 11.07L30.16 11.07L30.16 11.07Q29.32 11.07 28.56 11.20L28.56 11.20L28.56 12.85L28.56 12.85Q30.24 13.09 31.03 13.34L31.03 13.34L31.03 13.34Q31.82 13.58 32.12 13.99L32.12 13.99L32.12 13.99Q32.41 14.41 32.41 15.20L32.41 15.20L32.41 15.20Q32.41 16.00 32.12 16.48L32.12 16.48L32.12 16.48Q31.84 16.95 31.19 17.17L31.19 17.17L31.19 17.17Q30.55 17.39 29.47 17.39L29.47 17.39L29.47 17.39Q28.27 17.39 26.94 16.98L26.94 16.98L27.16 15.86L27.16 15.86Q28.24 16.28 29.46 16.28L29.46 16.28L29.46 16.28Q29.88 16.28 30.20 16.24L30.20 16.24L30.20 16.24Q30.52 16.20 30.94 16.09L30.94 16.09L30.94 14.43L30.94 14.43Q29.13 14.18 28.36 13.94L28.36 13.94L28.36 13.94Q27.59 13.71 27.34 13.31L27.34 13.31L27.34 13.31Q27.09 12.91 27.09 12.05L27.09 12.05ZM37.80 17.18L37.80 10.18L38.44 10.18L38.82 10.88L38.82 10.88Q39.35 10.44 39.98 10.24L39.98 10.24L39.98 10.24Q40.61 10.04 41.43 10.04L41.43 10.04L41.43 10.04Q42.41 10.04 42.91 10.34L42.91 10.34L42.91 10.34Q43.41 10.64 43.41 11.23L43.41 11.23L43.41 17.18L42.01 17.18L42.01 11.19L40.39 11.19L40.39 11.19Q39.70 11.19 39.45 11.35L39.45 11.35L39.45 11.35Q39.20 11.52 39.20 12.00L39.20 12.00L39.20 17.18L37.80 17.18ZM50.76 13.54L50.76 17.18L49.36 17.18L49.36 8.43L54.12 8.43L53.97 9.59L50.76 9.59L50.76 12.43L53.56 12.43L53.56 13.54L50.76 13.54ZM55.19 12.05L55.19 12.05Q55.19 10.98 55.82 10.47L55.82 10.47L55.82 10.47Q56.46 9.97 57.83 9.97L57.83 9.97L57.83 9.97Q59.05 9.97 60.16 10.28L60.16 10.28L59.96 11.30L59.96 11.30Q59.61 11.20 59.14 11.14L59.14 11.14L59.14 11.14Q58.66 11.07 58.25 11.07L58.25 11.07L58.25 11.07Q57.41 11.07 56.66 11.20L56.66 11.20L56.66 12.85L56.66 12.85Q58.34 13.09 59.13 13.34L59.13 13.34L59.13 13.34Q59.92 13.58 60.21 13.99L60.21 13.99L60.21 13.99Q60.51 14.41 60.51 15.20L60.51 15.20L60.51 15.20Q60.51 16.00 60.22 16.48L60.22 16.48L60.22 16.48Q59.93 16.95 59.29 17.17L59.29 17.17L59.29 17.17Q58.65 17.39 57.57 17.39L57.57 17.39L57.57 17.39Q56.36 17.39 55.03 16.98L55.03 16.98L55.26 15.86L55.26 15.86Q56.34 16.28 57.55 16.28L57.55 16.28L57.55 16.28Q57.97 16.28 58.30 16.24L58.30 16.24L58.30 16.24Q58.62 16.20 59.04 16.09L59.04 16.09L59.04 14.43L59.04 14.43Q57.23 14.18 56.46 13.94L56.46 13.94L56.46 13.94Q55.69 13.71 55.44 13.31L55.44 13.31L55.44 13.31Q55.19 12.91 55.19 12.05L55.19 12.05ZM62.24 17.18L62.24 17.18ZM62.40 10.28L63.80 10.07L63.80 17.18L62.40 17.18L62.40 10.28ZM63.11 8.96L63.11 8.96Q62.59 8.96 62.42 8.79L62.42 8.79L62.42 8.79Q62.24 8.61 62.24 8.12L62.24 8.12L62.24 8.12Q62.24 7.62 62.43 7.43L62.43 7.43L62.43 7.43Q62.61 7.25 63.11 7.25L63.11 7.25L63.11 7.25Q63.60 7.25 63.78 7.43L63.78 7.43L63.78 7.43Q63.95 7.62 63.95 8.12L63.95 8.12L63.95 8.12Q63.95 8.61 63.78 8.79L63.78 8.79L63.78 8.79Q63.62 8.96 63.11 8.96L63.11 8.96Z"></path></g><defs data-v-423bf9ae=""><linearGradient data-v-423bf9ae="" gradientTransform="rotate(25)" id="fd5417a8-6205-4c72-a372-2388c00411ac" x1="0%" y1="0%" x2="100%" y2="0%"><stop data-v-423bf9ae="" offset="0%" style="stop-color: rgb(40, 139, 88); stop-opacity: 1;"></stop><stop data-v-423bf9ae="" offset="100%" style="stop-color: rgb(21, 34, 241); stop-opacity: 1;"></stop></linearGradient></defs><g data-v-423bf9ae="" id="cdc1ceb8-6dc1-4d99-82df-1fa195c393a3" transform="matrix(1.4379293781848441,0,0,1.4379293781848441,-11.69659952208957,-9.014705762578338)" stroke="none" fill="url(#fd5417a8-6205-4c72-a372-2388c00411ac)"><path d="M102.923 54.276l-6.311 6.407-41.002-41.05-41.026 41.05-6.395-6.407L55.584 6.887l.071.068.249-.071L75.281 26.08V12.474h8v22.35z"></path><path d="M47.281 40.474h17v29h-17z"></path></g><!----><g data-v-423bf9ae="" id="dc585268-e551-47b3-bccd-83ea71925abc" fill="#000000" transform="matrix(0.6914812733812327,0,0,0.6914812733812327,155.7160137372407,57.994703857616344)"><path d="M0.73 5.77C0.73 9.07 5.71 8.20 5.71 10.65C5.71 11.59 4.87 12.31 3.89 12.31C3.07 12.31 1.47 11.83 1.44 11.47L1.36 10.15C1.34 9.97 1.27 9.91 1.09 9.91L1.02 9.91C0.81 9.91 0.81 10.00 0.81 10.12C0.81 10.32 0.92 11.66 0.95 12.17C0.97 12.38 2.23 12.85 3.77 12.85C5.33 12.85 6.94 11.87 6.94 10.11C6.94 6.79 1.97 7.87 1.97 5.32C1.97 4.31 2.76 3.56 3.79 3.56C4.82 3.56 5.91 4.58 5.91 4.89C5.91 5.01 5.87 5.73 5.87 5.78C5.87 5.92 5.91 5.99 6.17 5.99C6.41 5.99 6.43 5.94 6.43 5.75C6.43 5.04 6.51 3.68 6.51 3.53C6.51 3.30 6.47 3.29 6.20 3.29C5.98 3.29 5.96 3.32 5.95 3.53C5.95 3.61 5.94 3.78 5.89 3.78C5.84 3.78 5.75 3.74 5.68 3.68C4.89 3.14 4.27 3.08 3.77 3.08C2.24 3.08 0.73 4.17 0.73 5.77ZM14.91 12.39C14.91 12.63 14.91 12.68 15.11 12.68C15.43 12.68 16.37 12.64 16.79 12.64C17.21 12.64 18.03 12.68 18.35 12.68C18.52 12.68 18.52 12.61 18.52 12.40C18.52 12.24 18.52 12.18 18.35 12.18L17.43 12.18C17.35 12.18 17.30 9.93 17.30 8.20C17.30 8.01 17.30 8.01 17.43 8.01L22.67 8.01C22.74 8.01 22.75 8.01 22.75 8.18L22.75 9.91C22.75 11.05 22.74 12.18 22.68 12.18L21.91 12.18C21.69 12.18 21.64 12.19 21.64 12.39C21.64 12.63 21.66 12.68 21.85 12.68C22.18 12.68 23.02 12.64 23.44 12.64C23.86 12.64 24.44 12.68 24.77 12.68C24.93 12.68 24.95 12.61 24.95 12.40C24.95 12.24 24.93 12.18 24.77 12.18L24.02 12.18C23.98 12.18 23.97 9.27 23.97 7.04C23.97 5.40 23.97 3.70 24.01 3.70L24.63 3.70C24.85 3.70 24.89 3.68 24.89 3.49C24.89 3.25 24.88 3.19 24.68 3.19C24.54 3.19 23.91 3.23 23.32 3.23C22.65 3.23 22.05 3.19 21.83 3.19C21.63 3.19 21.60 3.22 21.60 3.44C21.60 3.67 21.67 3.70 21.84 3.70L22.64 3.70C22.69 3.70 22.75 4.79 22.75 5.71L22.75 7.42C22.75 7.59 22.75 7.59 22.58 7.59L17.47 7.59C17.30 7.59 17.30 7.59 17.30 7.38C17.30 6.96 17.29 6.23 17.29 5.53C17.29 4.66 17.30 3.70 17.36 3.70L18.13 3.70C18.35 3.70 18.40 3.68 18.40 3.49C18.40 3.25 18.38 3.19 18.19 3.19C17.86 3.19 17.28 3.23 16.67 3.23C16.09 3.23 15.60 3.19 15.37 3.19C15.19 3.19 15.09 3.21 15.09 3.44C15.09 3.68 15.20 3.70 15.37 3.70L15.99 3.70C16.04 3.70 16.06 5.59 16.06 7.18L16.06 8.61C16.06 10.08 16.04 12.18 15.97 12.18L15.16 12.18C14.94 12.18 14.91 12.19 14.91 12.39ZM32.84 12.39C32.84 12.63 32.84 12.68 33.04 12.68C33.21 12.68 33.53 12.64 34.10 12.64C34.72 12.64 35.27 12.68 35.42 12.68C35.59 12.68 35.59 12.61 35.59 12.40C35.59 12.24 35.59 12.18 35.42 12.18L34.34 12.18C34.34 12.18 34.33 12.18 34.33 12.17C34.34 11.87 35.11 9.90 35.46 9.02C35.53 8.83 35.55 8.79 35.76 8.79L38.58 8.79C38.72 8.79 38.72 8.81 38.79 9.03C39.06 9.77 39.77 11.89 39.77 12.17C39.77 12.18 39.76 12.18 39.76 12.18L38.99 12.18C38.77 12.18 38.75 12.19 38.75 12.39C38.75 12.63 38.77 12.68 38.93 12.68C39.26 12.68 40.12 12.64 40.54 12.64C40.96 12.64 41.64 12.68 41.85 12.68C41.99 12.68 42 12.61 42 12.40C42 12.24 41.99 12.18 41.85 12.18L41.36 12.18C41.26 12.18 40.24 9.34 39.68 7.78L38.00 3.07C37.98 3.00 37.91 2.94 37.83 2.94C37.70 2.94 37.60 3.16 37.52 3.35C37.37 3.71 37.13 3.84 37.02 4.13L35.53 7.57C35.35 8.01 33.64 12.18 33.52 12.18L33.10 12.18C32.87 12.18 32.84 12.19 32.84 12.39ZM35.74 8.33C35.74 8.30 35.77 8.23 35.81 8.13L37.18 4.77C37.23 4.66 37.25 4.61 37.28 4.61C37.30 4.61 37.31 4.63 37.35 4.77L38.51 8.18C38.54 8.25 38.56 8.29 38.56 8.32C38.56 8.36 38.53 8.37 38.43 8.37L35.92 8.37C35.74 8.37 35.74 8.34 35.74 8.33ZM49.62 12.39C49.62 12.63 49.66 12.68 49.85 12.68C50.18 12.68 50.93 12.64 51.65 12.64C52.30 12.64 53.10 12.68 53.33 12.68C53.49 12.68 53.52 12.61 53.52 12.40C53.52 12.24 53.49 12.18 53.33 12.18L52.36 12.18C52.26 12.18 52.23 9.55 52.23 7.76L52.23 5.87C52.23 5.14 52.26 3.70 52.36 3.70L53.27 3.70C53.49 3.70 53.52 3.68 53.52 3.49C53.52 3.25 53.49 3.19 53.33 3.19C53.00 3.19 52.33 3.23 51.67 3.23C50.86 3.23 50.15 3.19 49.92 3.19C49.74 3.19 49.67 3.21 49.67 3.44C49.67 3.68 49.76 3.70 49.92 3.70L50.85 3.70C50.89 3.70 50.96 4.79 50.96 5.71L50.96 7.08C50.96 8.92 50.95 12.18 50.83 12.18L49.91 12.18C49.69 12.18 49.62 12.19 49.62 12.39ZM61.42 12.39C61.42 12.63 61.43 12.68 61.63 12.68C61.95 12.68 62.85 12.64 63.27 12.64C63.69 12.64 64.64 12.68 64.96 12.68C65.13 12.68 65.14 12.61 65.14 12.40C65.14 12.24 65.11 12.18 64.95 12.18L63.94 12.18C63.84 12.18 63.81 10.12 63.81 8.46C63.81 8.30 63.81 8.30 63.98 8.30L64.25 8.30C64.46 8.30 64.46 8.32 64.53 8.40L67.56 12.00C67.66 12.11 67.73 12.18 67.52 12.18L67.06 12.18C66.88 12.18 66.81 12.19 66.81 12.39C66.81 12.63 66.81 12.68 67.00 12.68C67.33 12.68 68.03 12.64 68.45 12.64C68.87 12.64 69.55 12.68 69.87 12.68C70.04 12.68 70.04 12.61 70.04 12.40C70.04 12.24 70.04 12.18 69.87 12.18L69.65 12.18C69.47 12.18 69.37 12.10 69.24 11.96L65.48 7.62C65.34 7.45 65.31 7.50 65.44 7.36C65.88 6.83 68.42 3.77 68.49 3.77L69.16 3.77C69.38 3.77 69.41 3.75 69.41 3.56C69.41 3.32 69.41 3.26 69.22 3.26C69.02 3.26 68.57 3.30 68.05 3.30C67.52 3.30 67.05 3.26 66.82 3.26C66.64 3.26 66.54 3.28 66.54 3.51C66.54 3.75 66.65 3.77 66.82 3.77L67.38 3.77C67.55 3.77 67.55 3.84 67.44 3.99C66.91 4.66 64.55 7.92 64.26 7.92L63.95 7.92C63.81 7.92 63.81 7.88 63.81 7.69L63.81 5.94C63.81 5.21 63.88 3.77 63.98 3.77L64.75 3.77C64.97 3.77 65.02 3.75 65.02 3.56C65.02 3.32 65.00 3.26 64.81 3.26C64.48 3.26 63.71 3.30 63.29 3.30C62.71 3.30 62.05 3.26 61.82 3.26C61.64 3.26 61.54 3.28 61.54 3.51C61.54 3.75 61.66 3.77 61.82 3.77L62.47 3.77C62.52 3.77 62.55 4.86 62.55 5.78L62.55 9.84C62.55 11.00 62.54 12.18 62.45 12.18L61.71 12.18C61.49 12.18 61.42 12.19 61.42 12.39ZM77.52 12.39C77.52 12.63 77.52 12.68 77.71 12.68C78.04 12.68 78.97 12.64 79.39 12.64C79.81 12.64 80.64 12.68 80.96 12.68C81.13 12.68 81.13 12.61 81.13 12.40C81.13 12.24 81.13 12.18 80.96 12.18L80.04 12.18C79.95 12.18 79.91 9.93 79.91 8.20C79.91 8.01 79.91 8.01 80.04 8.01L85.27 8.01C85.34 8.01 85.36 8.01 85.36 8.18L85.36 9.91C85.36 11.05 85.34 12.18 85.29 12.18L84.52 12.18C84.29 12.18 84.25 12.19 84.25 12.39C84.25 12.63 84.27 12.68 84.46 12.68C84.78 12.68 85.62 12.64 86.04 12.64C86.46 12.64 87.05 12.68 87.37 12.68C87.54 12.68 87.56 12.61 87.56 12.40C87.56 12.24 87.54 12.18 87.37 12.18L86.63 12.18C86.59 12.18 86.58 9.27 86.58 7.04C86.58 5.40 86.58 3.70 86.62 3.70L87.23 3.70C87.46 3.70 87.50 3.68 87.50 3.49C87.50 3.25 87.49 3.19 87.29 3.19C87.15 3.19 86.52 3.23 85.93 3.23C85.26 3.23 84.66 3.19 84.43 3.19C84.24 3.19 84.21 3.22 84.21 3.44C84.21 3.67 84.28 3.70 84.45 3.70L85.25 3.70C85.30 3.70 85.36 4.79 85.36 5.71L85.36 7.42C85.36 7.59 85.36 7.59 85.19 7.59L80.08 7.59C79.91 7.59 79.91 7.59 79.91 7.38C79.91 6.96 79.90 6.23 79.90 5.53C79.90 4.66 79.91 3.70 79.97 3.70L80.74 3.70C80.96 3.70 81.00 3.68 81.00 3.49C81.00 3.25 80.99 3.19 80.79 3.19C80.47 3.19 79.88 3.23 79.28 3.23C78.69 3.23 78.20 3.19 77.98 3.19C77.80 3.19 77.70 3.21 77.70 3.44C77.70 3.68 77.81 3.70 77.98 3.70L78.60 3.70C78.65 3.70 78.67 5.59 78.67 7.18L78.67 8.61C78.67 10.08 78.65 12.18 78.58 12.18L77.77 12.18C77.55 12.18 77.52 12.19 77.52 12.39ZM105.25 12.39C105.25 12.63 105.25 12.68 105.45 12.68C105.62 12.68 105.94 12.64 106.51 12.64C107.13 12.64 107.67 12.68 107.83 12.68C108.00 12.68 108.00 12.61 108.00 12.40C108.00 12.24 108.00 12.18 107.83 12.18L106.75 12.18C106.75 12.18 106.74 12.18 106.74 12.17C106.75 11.87 107.52 9.90 107.87 9.02C107.94 8.83 107.95 8.79 108.16 8.79L110.99 8.79C111.13 8.79 111.13 8.81 111.20 9.03C111.47 9.77 112.18 11.89 112.18 12.17C112.18 12.18 112.17 12.18 112.17 12.18L111.40 12.18C111.17 12.18 111.16 12.19 111.16 12.39C111.16 12.63 111.17 12.68 111.34 12.68C111.66 12.68 112.53 12.64 112.95 12.64C113.37 12.64 114.04 12.68 114.25 12.68C114.39 12.68 114.41 12.61 114.41 12.40C114.41 12.24 114.39 12.18 114.25 12.18L113.76 12.18C113.67 12.18 112.64 9.34 112.08 7.78L110.40 3.07C110.39 3.00 110.32 2.94 110.24 2.94C110.11 2.94 110.01 3.16 109.93 3.35C109.77 3.71 109.54 3.84 109.42 4.13L107.94 7.57C107.76 8.01 106.05 12.18 105.92 12.18L105.50 12.18C105.28 12.18 105.25 12.19 105.25 12.39ZM108.15 8.33C108.15 8.30 108.18 8.23 108.22 8.13L109.59 4.77C109.63 4.66 109.66 4.61 109.69 4.61C109.70 4.61 109.72 4.63 109.76 4.77L110.92 8.18C110.95 8.25 110.96 8.29 110.96 8.32C110.96 8.36 110.94 8.37 110.84 8.37L108.33 8.37C108.15 8.37 108.15 8.34 108.15 8.33ZM122.16 12.39C122.16 12.63 122.18 12.68 122.37 12.68C122.56 12.68 122.93 12.64 123.55 12.64C124.18 12.64 124.74 12.68 125.06 12.68C125.23 12.68 125.23 12.61 125.23 12.40C125.23 12.24 125.23 12.18 125.06 12.18L123.86 12.18C123.82 12.18 123.80 11.54 123.80 10.79C123.80 9.46 123.82 7.48 123.82 5.99C123.82 5.25 123.82 4.84 123.83 4.28C123.83 4.02 123.90 4.14 124.03 4.28L130.91 12.66C131.00 12.75 131.08 12.89 131.19 12.89C131.31 12.89 131.38 12.77 131.38 12.54C131.38 12.39 131.54 6.65 131.56 4.48C131.56 4.06 131.59 3.70 131.61 3.70L132.24 3.70C132.47 3.70 132.52 3.68 132.52 3.49C132.52 3.25 132.52 3.19 132.33 3.19C132.13 3.19 131.70 3.23 131.14 3.23C130.52 3.23 129.72 3.19 129.63 3.19C129.46 3.19 129.46 3.26 129.46 3.47C129.46 3.64 129.46 3.70 129.63 3.70L130.93 3.70C130.94 3.70 130.94 4.33 130.94 4.44C130.94 5.85 130.97 8.33 130.97 9.70L130.97 10.29C130.97 10.57 130.96 10.65 130.73 10.37L125.05 3.39C124.94 3.25 124.91 3.19 124.74 3.19C124.66 3.19 124.28 3.23 123.97 3.23C123.68 3.23 122.60 3.19 122.40 3.19C122.23 3.19 122.21 3.26 122.21 3.47C122.21 3.64 122.23 3.70 122.40 3.70L123.31 3.70C123.31 4.17 123.27 8.53 123.20 10.79C123.17 11.69 123.19 12.18 123.07 12.18L122.43 12.18C122.21 12.18 122.16 12.19 122.16 12.39ZM140.49 12.46C140.49 12.63 140.50 12.70 140.69 12.70C140.84 12.70 142.07 12.64 142.46 12.64C143.32 12.64 144.20 12.70 145.05 12.70C147.67 12.70 150.07 11.07 150.07 7.91C150.07 4.89 147.73 3.07 144.69 3.07C144.13 3.07 142.87 3.23 141.83 3.23C141.36 3.23 140.90 3.22 140.84 3.22C140.66 3.22 140.64 3.32 140.64 3.49C140.64 3.68 140.71 3.70 140.84 3.70L141.81 3.67C141.83 3.67 141.83 4.20 141.83 4.72C141.83 5.91 141.75 12.21 141.67 12.21L140.77 12.21C140.59 12.21 140.49 12.22 140.49 12.46ZM143.07 11.40C143.07 9.46 143.07 7.52 143.08 5.60C143.08 5.03 143.12 3.61 143.16 3.60C143.46 3.53 144.05 3.51 144.40 3.51C146.96 3.51 148.57 5.75 148.57 7.73C148.57 8.95 148.53 12.25 143.85 12.25C143.58 12.25 143.18 12.25 143.08 12.21C143.07 12.19 143.07 11.79 143.07 11.40ZM168.18 5.77C168.18 9.07 173.17 8.20 173.17 10.65C173.17 11.59 172.33 12.31 171.35 12.31C170.52 12.31 168.92 11.83 168.90 11.47L168.81 10.15C168.80 9.97 168.73 9.91 168.55 9.91L168.48 9.91C168.27 9.91 168.27 10.00 168.27 10.12C168.27 10.32 168.38 11.66 168.41 12.17C168.42 12.38 169.68 12.85 171.22 12.85C172.79 12.85 174.40 11.87 174.40 10.11C174.40 6.79 169.43 7.87 169.43 5.32C169.43 4.31 170.21 3.56 171.25 3.56C172.27 3.56 173.36 4.58 173.36 4.89C173.36 5.01 173.32 5.73 173.32 5.78C173.32 5.92 173.36 5.99 173.63 5.99C173.87 5.99 173.88 5.94 173.88 5.75C173.88 5.04 173.96 3.68 173.96 3.53C173.96 3.30 173.92 3.29 173.66 3.29C173.43 3.29 173.42 3.32 173.40 3.53C173.40 3.61 173.39 3.78 173.35 3.78C173.29 3.78 173.21 3.74 173.14 3.68C172.34 3.14 171.72 3.08 171.22 3.08C169.69 3.08 168.18 4.17 168.18 5.77ZM182.36 12.39C182.36 12.63 182.39 12.68 182.59 12.68C182.91 12.68 183.88 12.64 184.30 12.64C184.72 12.64 189.22 12.68 189.55 12.68C189.67 12.68 189.83 12.66 189.83 12.49C189.83 12.07 189.87 11.23 189.87 10.53C189.87 10.39 189.71 10.39 189.59 10.39C189.48 10.39 189.35 10.39 189.35 10.51C189.34 11.06 189.34 11.41 189.31 11.76C189.28 12.01 189.28 12.04 189.18 12.04C189.03 12.04 186.40 12.08 184.90 12.08C184.83 12.08 184.79 10.11 184.74 8.26C184.74 8.06 184.79 8.09 184.93 8.09L187.21 8.09C187.91 8.09 187.94 8.20 187.94 8.30L187.94 9.00C187.94 9.14 188.12 9.14 188.23 9.14C188.33 9.14 188.45 9.13 188.45 9.02C188.45 8.83 188.43 8.33 188.43 7.83C188.43 7.32 188.45 6.83 188.45 6.71C188.45 6.59 188.31 6.58 188.22 6.58C188.10 6.58 187.94 6.59 187.94 6.72L187.94 7.45C187.94 7.62 187.49 7.63 187.21 7.63L184.87 7.63C184.76 7.63 184.74 7.63 184.74 7.45C184.73 6.75 184.72 6.06 184.72 5.46C184.72 5.12 184.72 3.71 184.80 3.71C186.03 3.71 188.54 3.75 188.54 3.81C188.54 3.99 188.50 4.83 188.50 4.89C188.50 5.04 188.57 5.10 188.75 5.10C188.94 5.10 189.01 5.08 189.01 4.94C189.01 3.85 189.07 3.36 189.07 3.09C189.07 2.91 188.99 2.90 188.79 2.90C188.59 2.90 188.59 2.95 188.57 3.11C188.55 3.25 188.62 3.25 187.71 3.25C187.10 3.25 184.95 3.29 184.18 3.29C183.69 3.29 182.76 3.25 182.66 3.25C182.53 3.25 182.48 3.30 182.48 3.49C182.48 3.72 182.55 3.74 182.71 3.74L183.37 3.74C183.43 3.74 183.50 4.79 183.50 5.71C183.50 5.80 183.55 8.27 183.55 9.83L183.55 11.17C183.55 11.84 183.53 12.18 183.50 12.18L182.64 12.18C182.42 12.18 182.36 12.21 182.36 12.39ZM197.83 12.39C197.83 12.63 197.85 12.68 198.04 12.68C198.37 12.68 199.26 12.64 199.68 12.64C200.10 12.64 201.05 12.68 201.38 12.68C201.54 12.68 201.56 12.61 201.56 12.40C201.56 12.24 201.53 12.18 201.36 12.18L200.35 12.18C200.26 12.18 200.23 10.12 200.23 8.46C200.23 8.30 200.23 8.30 200.40 8.30L200.66 8.30C200.87 8.30 200.87 8.32 200.94 8.40L203.98 12.00C204.08 12.11 204.15 12.18 203.94 12.18L203.48 12.18C203.29 12.18 203.22 12.19 203.22 12.39C203.22 12.63 203.22 12.68 203.42 12.68C203.74 12.68 204.44 12.64 204.86 12.64C205.28 12.64 205.97 12.68 206.29 12.68C206.46 12.68 206.46 12.61 206.46 12.40C206.46 12.24 206.46 12.18 206.29 12.18L206.07 12.18C205.88 12.18 205.79 12.10 205.66 11.96L201.89 7.62C201.75 7.45 201.73 7.50 201.85 7.36C202.30 6.83 204.83 3.77 204.90 3.77L205.58 3.77C205.80 3.77 205.83 3.75 205.83 3.56C205.83 3.32 205.83 3.26 205.63 3.26C205.44 3.26 204.99 3.30 204.47 3.30C203.94 3.30 203.46 3.26 203.24 3.26C203.06 3.26 202.96 3.28 202.96 3.51C202.96 3.75 203.07 3.77 203.24 3.77L203.80 3.77C203.97 3.77 203.97 3.84 203.85 3.99C203.32 4.66 200.97 7.92 200.68 7.92L200.37 7.92C200.23 7.92 200.23 7.88 200.23 7.69L200.23 5.94C200.23 5.21 200.30 3.77 200.40 3.77L201.17 3.77C201.39 3.77 201.43 3.75 201.43 3.56C201.43 3.32 201.42 3.26 201.22 3.26C200.90 3.26 200.13 3.30 199.71 3.30C199.12 3.30 198.46 3.26 198.24 3.26C198.06 3.26 197.96 3.28 197.96 3.51C197.96 3.75 198.07 3.77 198.24 3.77L198.88 3.77C198.94 3.77 198.97 4.86 198.97 5.78L198.97 9.84C198.97 11.00 198.95 12.18 198.87 12.18L198.13 12.18C197.90 12.18 197.83 12.19 197.83 12.39ZM213.79 12.39C213.79 12.63 213.79 12.68 213.99 12.68C214.16 12.68 214.48 12.64 215.05 12.64C215.67 12.64 216.22 12.68 216.37 12.68C216.54 12.68 216.54 12.61 216.54 12.40C216.54 12.24 216.54 12.18 216.37 12.18L215.29 12.18C215.29 12.18 215.28 12.18 215.28 12.17C215.29 11.87 216.06 9.90 216.41 9.02C216.48 8.83 216.50 8.79 216.71 8.79L219.53 8.79C219.67 8.79 219.67 8.81 219.74 9.03C220.01 9.77 220.72 11.89 220.72 12.17C220.72 12.18 220.71 12.18 220.71 12.18L219.94 12.18C219.72 12.18 219.70 12.19 219.70 12.39C219.70 12.63 219.72 12.68 219.88 12.68C220.21 12.68 221.07 12.64 221.49 12.64C221.91 12.64 222.59 12.68 222.80 12.68C222.94 12.68 222.95 12.61 222.95 12.40C222.95 12.24 222.94 12.18 222.80 12.18L222.31 12.18C222.21 12.18 221.19 9.34 220.63 7.78L218.95 3.07C218.93 3.00 218.86 2.94 218.78 2.94C218.65 2.94 218.55 3.16 218.47 3.35C218.32 3.71 218.08 3.84 217.97 4.13L216.48 7.57C216.30 8.01 214.59 12.18 214.47 12.18L214.05 12.18C213.82 12.18 213.79 12.19 213.79 12.39ZM216.69 8.33C216.69 8.30 216.72 8.23 216.76 8.13L218.13 4.77C218.18 4.66 218.20 4.61 218.23 4.61C218.25 4.61 218.26 4.63 218.30 4.77L219.46 8.18C219.49 8.25 219.51 8.29 219.51 8.32C219.51 8.36 219.48 8.37 219.38 8.37L216.87 8.37C216.69 8.37 216.69 8.34 216.69 8.33ZM230.92 5.77C230.92 9.07 235.90 8.20 235.90 10.65C235.90 11.59 235.06 12.31 234.08 12.31C233.25 12.31 231.66 11.83 231.63 11.47L231.55 10.15C231.53 9.97 231.46 9.91 231.28 9.91L231.21 9.91C231 9.91 231 10.00 231 10.12C231 10.32 231.11 11.66 231.14 12.17C231.15 12.38 232.41 12.85 233.95 12.85C235.52 12.85 237.13 11.87 237.13 10.11C237.13 6.79 232.16 7.87 232.16 5.32C232.16 4.31 232.95 3.56 233.98 3.56C235.00 3.56 236.10 4.58 236.10 4.89C236.10 5.01 236.05 5.73 236.05 5.78C236.05 5.92 236.10 5.99 236.36 5.99C236.60 5.99 236.61 5.94 236.61 5.75C236.61 5.04 236.70 3.68 236.70 3.53C236.70 3.30 236.66 3.29 236.39 3.29C236.17 3.29 236.15 3.32 236.14 3.53C236.14 3.61 236.12 3.78 236.08 3.78C236.03 3.78 235.94 3.74 235.87 3.68C235.07 3.14 234.46 3.08 233.95 3.08C232.43 3.08 230.92 4.17 230.92 5.77ZM245.03 8.15C245.03 11.17 247.37 12.80 249.62 12.80C252.41 12.80 254.38 10.89 254.38 8.06C254.38 5.33 252.63 3.11 249.83 3.11C247.23 3.11 245.03 5.10 245.03 8.15ZM246.43 7.77C246.43 5.64 247.72 3.58 249.69 3.58C251.93 3.58 253.01 5.81 253.01 7.94C253.01 10.08 251.90 12.32 249.63 12.32C247.65 12.32 246.43 10.28 246.43 7.77ZM262.49 12.39C262.49 12.63 262.50 12.68 262.70 12.68C262.88 12.68 263.26 12.64 263.87 12.64C264.50 12.64 265.06 12.68 265.38 12.68C265.55 12.68 265.55 12.61 265.55 12.40C265.55 12.24 265.55 12.18 265.38 12.18L264.18 12.18C264.14 12.18 264.12 11.54 264.12 10.79C264.12 9.46 264.14 7.48 264.14 5.99C264.14 5.25 264.14 4.84 264.15 4.28C264.15 4.02 264.22 4.14 264.35 4.28L271.24 12.66C271.32 12.75 271.40 12.89 271.52 12.89C271.63 12.89 271.70 12.77 271.70 12.54C271.70 12.39 271.87 6.65 271.88 4.48C271.88 4.06 271.91 3.70 271.94 3.70L272.57 3.70C272.79 3.70 272.85 3.68 272.85 3.49C272.85 3.25 272.85 3.19 272.65 3.19C272.45 3.19 272.02 3.23 271.46 3.23C270.84 3.23 270.05 3.19 269.95 3.19C269.78 3.19 269.78 3.26 269.78 3.47C269.78 3.64 269.78 3.70 269.95 3.70L271.25 3.70C271.26 3.70 271.26 4.33 271.26 4.44C271.26 5.85 271.29 8.33 271.29 9.70L271.29 10.29C271.29 10.57 271.28 10.65 271.05 10.37L265.37 3.39C265.26 3.25 265.23 3.19 265.06 3.19C264.98 3.19 264.60 3.23 264.29 3.23C264.00 3.23 262.92 3.19 262.72 3.19C262.56 3.19 262.53 3.26 262.53 3.47C262.53 3.64 262.56 3.70 262.72 3.70L263.63 3.70C263.63 4.17 263.59 8.53 263.52 10.79C263.49 11.69 263.51 12.18 263.40 12.18L262.75 12.18C262.53 12.18 262.49 12.19 262.49 12.39ZM290.68 12.39C290.68 12.63 290.71 12.68 290.91 12.68C291.23 12.68 292.19 12.64 292.61 12.64C293.03 12.64 297.54 12.68 297.86 12.68C297.99 12.68 298.14 12.66 298.14 12.49C298.14 12.07 298.19 11.23 298.19 10.53C298.19 10.39 298.03 10.39 297.91 10.39C297.79 10.39 297.67 10.39 297.67 10.51C297.65 11.06 297.65 11.41 297.63 11.76C297.60 12.01 297.60 12.04 297.50 12.04C297.35 12.04 294.71 12.08 293.22 12.08C293.15 12.08 293.10 10.11 293.06 8.26C293.06 8.06 293.10 8.09 293.24 8.09L295.53 8.09C296.23 8.09 296.25 8.20 296.25 8.30L296.25 9.00C296.25 9.14 296.44 9.14 296.55 9.14C296.65 9.14 296.77 9.13 296.77 9.02C296.77 8.83 296.74 8.33 296.74 7.83C296.74 7.32 296.77 6.83 296.77 6.71C296.77 6.59 296.63 6.58 296.53 6.58C296.42 6.58 296.25 6.59 296.25 6.72L296.25 7.45C296.25 7.62 295.81 7.63 295.53 7.63L293.19 7.63C293.08 7.63 293.06 7.63 293.06 7.45C293.05 6.75 293.03 6.06 293.03 5.46C293.03 5.12 293.03 3.71 293.12 3.71C294.35 3.71 296.86 3.75 296.86 3.81C296.86 3.99 296.81 4.83 296.81 4.89C296.81 5.04 296.88 5.10 297.07 5.10C297.26 5.10 297.33 5.08 297.33 4.94C297.33 3.85 297.39 3.36 297.39 3.09C297.39 2.91 297.30 2.90 297.11 2.90C296.91 2.90 296.91 2.95 296.88 3.11C296.87 3.25 296.94 3.25 296.03 3.25C295.41 3.25 293.27 3.29 292.50 3.29C292.01 3.29 291.07 3.25 290.98 3.25C290.85 3.25 290.79 3.30 290.79 3.49C290.79 3.72 290.86 3.74 291.03 3.74L291.69 3.74C291.75 3.74 291.82 4.79 291.82 5.71C291.82 5.80 291.87 8.27 291.87 9.83L291.87 11.17C291.87 11.84 291.84 12.18 291.82 12.18L290.96 12.18C290.74 12.18 290.68 12.21 290.68 12.39ZM306.15 12.39C306.15 12.63 306.17 12.68 306.36 12.68C306.54 12.68 306.92 12.64 307.54 12.64C308.17 12.64 308.73 12.68 309.05 12.68C309.22 12.68 309.22 12.61 309.22 12.40C309.22 12.24 309.22 12.18 309.05 12.18L307.85 12.18C307.80 12.18 307.79 11.54 307.79 10.79C307.79 9.46 307.80 7.48 307.80 5.99C307.80 5.25 307.80 4.84 307.82 4.28C307.82 4.02 307.89 4.14 308.01 4.28L314.90 12.66C314.99 12.75 315.07 12.89 315.18 12.89C315.29 12.89 315.36 12.77 315.36 12.54C315.36 12.39 315.53 6.65 315.55 4.48C315.55 4.06 315.57 3.70 315.60 3.70L316.23 3.70C316.46 3.70 316.51 3.68 316.51 3.49C316.51 3.25 316.51 3.19 316.32 3.19C316.12 3.19 315.69 3.23 315.13 3.23C314.51 3.23 313.71 3.19 313.61 3.19C313.45 3.19 313.45 3.26 313.45 3.47C313.45 3.64 313.45 3.70 313.61 3.70L314.92 3.70C314.93 3.70 314.93 4.33 314.93 4.44C314.93 5.85 314.96 8.33 314.96 9.70L314.96 10.29C314.96 10.57 314.94 10.65 314.72 10.37L309.04 3.39C308.92 3.25 308.90 3.19 308.73 3.19C308.64 3.19 308.27 3.23 307.96 3.23C307.66 3.23 306.59 3.19 306.39 3.19C306.22 3.19 306.19 3.26 306.19 3.47C306.19 3.64 306.22 3.70 306.39 3.70L307.30 3.70C307.30 4.17 307.26 8.53 307.19 10.79C307.16 11.69 307.17 12.18 307.06 12.18L306.42 12.18C306.19 12.18 306.15 12.19 306.15 12.39ZM324.28 5.01C324.28 5.17 324.46 5.17 324.59 5.17C324.74 5.17 324.79 5.15 324.80 4.97L324.91 3.89C324.93 3.81 325.47 3.75 326.23 3.75L328.22 3.75C328.27 3.75 328.30 4.35 328.30 4.97C328.30 6.43 328.24 12.18 328.12 12.18L327.25 12.18C327.03 12.18 326.98 12.19 326.98 12.39C326.98 12.63 327.00 12.68 327.19 12.68C327.52 12.68 328.50 12.64 328.92 12.64C329.34 12.64 330.27 12.68 330.60 12.68C330.76 12.68 330.79 12.61 330.79 12.40C330.79 12.24 330.76 12.18 330.60 12.18L329.60 12.18C329.57 12.18 329.57 11.76 329.57 11.31C329.57 9.56 329.66 5.96 329.66 5.92C329.67 5.18 329.67 3.75 329.77 3.75L331.38 3.75C332.09 3.75 332.92 3.78 332.92 3.85C332.92 3.99 332.88 4.90 332.88 4.97C332.88 5.12 332.95 5.17 333.13 5.17C333.33 5.17 333.40 5.17 333.40 5.03C333.40 3.93 333.45 3.40 333.45 3.14C333.45 2.94 333.37 2.94 333.17 2.94C333.02 2.94 332.96 2.98 332.95 3.16C332.95 3.23 332.30 3.28 331.46 3.28L326.47 3.28C325.81 3.28 325.00 3.28 325.00 3.21L325.00 3.07C325.00 2.94 324.87 2.94 324.77 2.94C324.55 2.94 324.52 3.00 324.51 3.19C324.45 3.89 324.28 4.97 324.28 5.01ZM341.21 12.39C341.21 12.63 341.24 12.68 341.43 12.68C341.75 12.68 342.72 12.64 343.14 12.64C343.56 12.64 348.07 12.68 348.39 12.68C348.52 12.68 348.67 12.66 348.67 12.49C348.67 12.07 348.71 11.23 348.71 10.53C348.71 10.39 348.56 10.39 348.43 10.39C348.32 10.39 348.19 10.39 348.19 10.51C348.18 11.06 348.18 11.41 348.15 11.76C348.12 12.01 348.12 12.04 348.03 12.04C347.87 12.04 345.24 12.08 343.74 12.08C343.67 12.08 343.63 10.11 343.59 8.26C343.59 8.06 343.63 8.09 343.77 8.09L346.05 8.09C346.75 8.09 346.78 8.20 346.78 8.30L346.78 9.00C346.78 9.14 346.96 9.14 347.07 9.14C347.17 9.14 347.30 9.13 347.30 9.02C347.30 8.83 347.27 8.33 347.27 7.83C347.27 7.32 347.30 6.83 347.30 6.71C347.30 6.59 347.16 6.58 347.06 6.58C346.95 6.58 346.78 6.59 346.78 6.72L346.78 7.45C346.78 7.62 346.33 7.63 346.05 7.63L343.71 7.63C343.60 7.63 343.59 7.63 343.59 7.45C343.57 6.75 343.56 6.06 343.56 5.46C343.56 5.12 343.56 3.71 343.64 3.71C344.88 3.71 347.38 3.75 347.38 3.81C347.38 3.99 347.34 4.83 347.34 4.89C347.34 5.04 347.41 5.10 347.59 5.10C347.79 5.10 347.86 5.08 347.86 4.94C347.86 3.85 347.91 3.36 347.91 3.09C347.91 2.91 347.83 2.90 347.63 2.90C347.44 2.90 347.44 2.95 347.41 3.11C347.40 3.25 347.47 3.25 346.56 3.25C345.94 3.25 343.80 3.29 343.03 3.29C342.54 3.29 341.60 3.25 341.50 3.25C341.38 3.25 341.32 3.30 341.32 3.49C341.32 3.72 341.39 3.74 341.56 3.74L342.22 3.74C342.27 3.74 342.34 4.79 342.34 5.71C342.34 5.80 342.40 8.27 342.40 9.83L342.40 11.17C342.40 11.84 342.37 12.18 342.34 12.18L341.49 12.18C341.26 12.18 341.21 12.21 341.21 12.39ZM356.68 3.51C356.68 3.72 356.75 3.79 356.94 3.79L357.76 3.77C357.85 3.77 357.90 6.61 357.90 8.55L357.90 10.42C357.90 11.30 357.88 12.18 357.84 12.18L357.24 12.18C357.01 12.18 356.94 12.19 356.94 12.39C356.94 12.63 356.99 12.68 357.18 12.68C357.31 12.68 358.13 12.64 358.55 12.64C358.97 12.64 359.74 12.68 360.07 12.68C360.23 12.68 360.26 12.61 360.26 12.40C360.26 12.24 360.23 12.18 360.07 12.18L359.25 12.18C359.18 12.18 359.10 9.18 359.10 8.37C359.10 8.30 359.10 8.26 359.21 8.26C359.60 8.26 360.21 8.27 360.50 8.27C362.74 8.32 362.88 10.00 362.88 11.68L362.88 12.49C362.88 12.61 362.94 12.64 363.03 12.64C363.03 12.64 364.48 12.68 364.95 12.68C365.12 12.68 365.18 12.64 365.18 12.53C365.18 12.24 365.12 12.18 364.97 12.18L364.32 12.18C364.22 12.18 364.20 12.14 364.17 11.31C364.08 8.99 362.71 8.34 361.80 8.05C361.66 8.01 361.69 8.01 361.80 7.95C362.39 7.69 363.71 6.94 363.71 5.63C363.71 3.63 362.01 3.21 360.61 3.21C360.29 3.21 359.00 3.29 358.58 3.29C358.16 3.29 357.18 3.26 356.96 3.26C356.78 3.26 356.68 3.28 356.68 3.51ZM359.10 7.80L359.10 4.40C359.10 4.05 359.13 3.68 359.17 3.68C359.38 3.65 359.66 3.65 359.88 3.65C361.19 3.65 362.43 4.47 362.43 5.82C362.43 6.99 361.89 7.57 361.23 7.88C361.19 7.90 361.14 7.90 361.07 7.90C360.60 7.88 359.88 7.88 359.28 7.87C359.11 7.87 359.10 7.85 359.10 7.80ZM372.65 3.51C372.65 3.75 372.69 3.79 372.90 3.79L373.83 3.77C373.88 3.77 373.88 4.47 373.88 5.24L373.88 5.96C373.88 7.70 373.87 12.18 373.76 12.18L373.09 12.18C372.86 12.18 372.79 12.19 372.79 12.39C372.79 12.63 372.81 12.68 373.00 12.68C373.13 12.68 374.11 12.64 374.53 12.64C374.95 12.64 375.82 12.68 376.14 12.68C376.31 12.68 376.33 12.61 376.33 12.40C376.33 12.24 376.31 12.18 376.14 12.18L375.14 12.18C375.10 12.18 375.09 10.60 375.09 9.58L375.09 8.65C375.09 8.57 375.09 8.54 375.19 8.54C375.58 8.54 375.90 8.58 376.40 8.58C378.39 8.58 379.79 7.83 379.79 6.01C379.79 4.09 378.31 3.22 376.39 3.22C376.07 3.22 374.98 3.29 374.56 3.29C374.32 3.29 373.13 3.26 372.90 3.26C372.72 3.26 372.65 3.28 372.65 3.51ZM375.10 8.05L375.10 4.40C375.10 4.05 375.12 3.70 375.16 3.68C375.28 3.67 375.45 3.67 375.59 3.67C377.24 3.67 378.50 4.47 378.50 5.80C378.50 7.57 377.17 8.19 375.59 8.19C375.34 8.19 375.10 8.16 375.10 8.05ZM387.55 3.51C387.55 3.72 387.62 3.79 387.81 3.79L388.63 3.77C388.72 3.77 388.77 6.61 388.77 8.55L388.77 10.42C388.77 11.30 388.75 12.18 388.71 12.18L388.11 12.18C387.88 12.18 387.81 12.19 387.81 12.39C387.81 12.63 387.86 12.68 388.05 12.68C388.18 12.68 389.00 12.64 389.42 12.64C389.84 12.64 390.61 12.68 390.94 12.68C391.10 12.68 391.13 12.61 391.13 12.40C391.13 12.24 391.10 12.18 390.94 12.18L390.12 12.18C390.05 12.18 389.97 9.18 389.97 8.37C389.97 8.30 389.97 8.26 390.08 8.26C390.47 8.26 391.08 8.27 391.37 8.27C393.61 8.32 393.75 10.00 393.75 11.68L393.75 12.49C393.75 12.61 393.81 12.64 393.90 12.64C393.90 12.64 395.35 12.68 395.82 12.68C395.99 12.68 396.05 12.64 396.05 12.53C396.05 12.24 395.99 12.18 395.84 12.18L395.19 12.18C395.09 12.18 395.07 12.14 395.04 11.31C394.95 8.99 393.58 8.34 392.67 8.05C392.53 8.01 392.56 8.01 392.67 7.95C393.26 7.69 394.58 6.94 394.58 5.63C394.58 3.63 392.88 3.21 391.48 3.21C391.16 3.21 389.87 3.29 389.45 3.29C389.03 3.29 388.05 3.26 387.83 3.26C387.65 3.26 387.55 3.28 387.55 3.51ZM389.97 7.80L389.97 4.40C389.97 4.05 390.00 3.68 390.04 3.68C390.25 3.65 390.53 3.65 390.75 3.65C392.06 3.65 393.30 4.47 393.30 5.82C393.30 6.99 392.76 7.57 392.10 7.88C392.06 7.90 392.01 7.90 391.94 7.90C391.47 7.88 390.75 7.88 390.15 7.87C389.98 7.87 389.97 7.85 389.97 7.80ZM403.38 12.39C403.38 12.63 403.42 12.68 403.62 12.68C403.94 12.68 404.70 12.64 405.41 12.64C406.07 12.64 406.87 12.68 407.09 12.68C407.26 12.68 407.29 12.61 407.29 12.40C407.29 12.24 407.26 12.18 407.09 12.18L406.13 12.18C406.03 12.18 406.00 9.55 406.00 7.76L406.00 5.87C406.00 5.14 406.03 3.70 406.13 3.70L407.04 3.70C407.26 3.70 407.29 3.68 407.29 3.49C407.29 3.25 407.26 3.19 407.09 3.19C406.77 3.19 406.10 3.23 405.44 3.23C404.63 3.23 403.91 3.19 403.69 3.19C403.51 3.19 403.44 3.21 403.44 3.44C403.44 3.68 403.52 3.70 403.69 3.70L404.61 3.70C404.66 3.70 404.73 4.79 404.73 5.71L404.73 7.08C404.73 8.92 404.71 12.18 404.60 12.18L403.68 12.18C403.45 12.18 403.38 12.19 403.38 12.39ZM415.39 5.77C415.39 9.07 420.38 8.20 420.38 10.65C420.38 11.59 419.54 12.31 418.56 12.31C417.73 12.31 416.14 11.83 416.11 11.47L416.02 10.15C416.01 9.97 415.94 9.91 415.76 9.91L415.69 9.91C415.48 9.91 415.48 10.00 415.48 10.12C415.48 10.32 415.59 11.66 415.62 12.17C415.63 12.38 416.89 12.85 418.43 12.85C420.00 12.85 421.61 11.87 421.61 10.11C421.61 6.79 416.64 7.87 416.64 5.32C416.64 4.31 417.42 3.56 418.46 3.56C419.48 3.56 420.57 4.58 420.57 4.89C420.57 5.01 420.53 5.73 420.53 5.78C420.53 5.92 420.57 5.99 420.84 5.99C421.08 5.99 421.09 5.94 421.09 5.75C421.09 5.04 421.18 3.68 421.18 3.53C421.18 3.30 421.13 3.29 420.87 3.29C420.64 3.29 420.63 3.32 420.62 3.53C420.62 3.61 420.60 3.78 420.56 3.78C420.50 3.78 420.42 3.74 420.35 3.68C419.55 3.14 418.94 3.08 418.43 3.08C416.91 3.08 415.39 4.17 415.39 5.77ZM429.58 12.39C429.58 12.63 429.60 12.68 429.80 12.68C430.12 12.68 431.09 12.64 431.51 12.64C431.93 12.64 436.44 12.68 436.76 12.68C436.88 12.68 437.04 12.66 437.04 12.49C437.04 12.07 437.08 11.23 437.08 10.53C437.08 10.39 436.93 10.39 436.80 10.39C436.69 10.39 436.56 10.39 436.56 10.51C436.55 11.06 436.55 11.41 436.52 11.76C436.49 12.01 436.49 12.04 436.39 12.04C436.24 12.04 433.61 12.08 432.11 12.08C432.04 12.08 432.00 10.11 431.96 8.26C431.96 8.06 432.00 8.09 432.14 8.09L434.42 8.09C435.12 8.09 435.15 8.20 435.15 8.30L435.15 9.00C435.15 9.14 435.33 9.14 435.44 9.14C435.54 9.14 435.67 9.13 435.67 9.02C435.67 8.83 435.64 8.33 435.64 7.83C435.64 7.32 435.67 6.83 435.67 6.71C435.67 6.59 435.53 6.58 435.43 6.58C435.32 6.58 435.15 6.59 435.15 6.72L435.15 7.45C435.15 7.62 434.70 7.63 434.42 7.63L432.08 7.63C431.97 7.63 431.96 7.63 431.96 7.45C431.94 6.75 431.93 6.06 431.93 5.46C431.93 5.12 431.93 3.71 432.01 3.71C433.24 3.71 435.75 3.75 435.75 3.81C435.75 3.99 435.71 4.83 435.71 4.89C435.71 5.04 435.78 5.10 435.96 5.10C436.16 5.10 436.23 5.08 436.23 4.94C436.23 3.85 436.28 3.36 436.28 3.09C436.28 2.91 436.20 2.90 436.00 2.90C435.81 2.90 435.81 2.95 435.78 3.11C435.76 3.25 435.83 3.25 434.92 3.25C434.31 3.25 432.17 3.29 431.40 3.29C430.91 3.29 429.97 3.25 429.87 3.25C429.74 3.25 429.69 3.30 429.69 3.49C429.69 3.72 429.76 3.74 429.93 3.74L430.58 3.74C430.64 3.74 430.71 4.79 430.71 5.71C430.71 5.80 430.77 8.27 430.77 9.83L430.77 11.17C430.77 11.84 430.74 12.18 430.71 12.18L429.86 12.18C429.63 12.18 429.58 12.21 429.58 12.39Z"></path></g></svg>