<svg xmlns="http://www.w3.org/2000/svg" viewBox="0 0 1440 320"><path fill="#d2fdff" fill-opacity="1" d="M0,288L24,245.3C48,203,96,117,144,101.3C192,85,240,139,288,176C336,213,384,235,432,213.3C480,192,528,128,576,122.7C624,117,672,171,720,208C768,245,816,267,864,250.7C912,235,960,181,1008,186.7C1056,192,1104,256,1152,272C1200,288,1248,256,1296,218.7C1344,181,1392,139,1416,117.3L1440,96L1440,320L1416,320C1392,320,1344,320,1296,320C1248,320,1200,320,1152,320C1104,320,1056,320,1008,320C960,320,912,320,864,320C816,320,768,320,720,320C672,320,624,320,576,320C528,320,480,320,432,320C384,320,336,320,288,320C240,320,192,320,144,320C96,320,48,320,24,320L0,320Z"></path></svg>