<svg data-v-423bf9ae="" xmlns="http://www.w3.org/2000/svg" viewBox="0 0 548 90" class="iconLeft"><!----><!----><!----><g data-v-423bf9ae="" id="8a5c4e31-63b1-43d2-b957-3530f2773345" fill="#000000" transform="matrix(6.514658628050826,0,0,6.514658628050826,108.4364906216475,0.21172456174471677)"><path d="M5.10 2.51L3.84 2.51C3.56 2.51 3.09 2.45 3.09 2.45L0.24 11.37L1.46 11.48C1.46 11.27 1.60 10.05 1.92 8.68L5.38 8.68L6.27 11.48L7.94 11.37ZM3.70 3.43L5.15 7.98L2.09 7.98C2.16 7.71 2.20 7.52 2.30 7.21L3.51 3.43ZM14.15 5.14C13.78 4.96 12.71 4.72 12.05 4.72C9.97 4.72 8.57 6.08 8.57 8.11C8.57 10.14 9.97 11.48 12.05 11.48C12.71 11.48 13.78 11.24 14.15 11.06L13.82 10.22L12.87 10.63C12.68 10.71 12.32 10.78 12.17 10.78C10.95 10.78 10.28 9.84 10.28 8.11C10.28 6.36 10.95 5.42 12.17 5.42C12.32 5.42 12.68 5.50 12.87 5.59L13.82 5.99ZM19.53 6.03L19.64 4.62C18.63 4.62 18.21 5.05 17.72 5.56L17.19 6.09L16.83 4.77L15.57 4.83L15.57 11.37L17.19 11.37L17.19 7L17.81 6.38C18.16 6.03 18.63 6.03 19.08 6.03ZM21.90 7.28C22.05 6.06 22.62 5.42 23.53 5.42C24.54 5.42 25.10 6.06 25.13 7.25ZM21.85 7.98L26.77 8.08L26.77 7.42C26.77 5.80 25.51 4.72 23.62 4.72C21.55 4.72 20.16 6.06 20.16 8.08C20.16 10.12 21.57 11.48 23.67 11.48C24.79 11.48 26.24 10.86 26.61 10.68L26.25 9.81L24.95 10.46C24.64 10.61 24.12 10.78 23.79 10.78C22.37 10.78 21.85 9.97 21.85 8.04ZM27.73 10.89C28.46 11.16 29.43 11.48 30.66 11.48C32.62 11.48 33.92 10.74 33.92 9.60C33.92 8.34 32.55 7.83 31.42 7.41C30.27 6.99 29.30 6.55 29.30 6.09C29.30 5.66 29.83 5.42 30.80 5.42C31.44 5.42 31.79 5.46 32.90 5.95L33.19 6.09L33.53 5.18C32.80 4.91 31.88 4.72 30.77 4.72C29.09 4.72 27.97 5.40 27.97 6.44C27.97 7.63 29.30 8.11 30.39 8.51C31.51 8.92 32.45 9.39 32.45 9.91C32.45 10.49 31.82 10.78 30.66 10.78C30.03 10.78 29.32 10.56 28.32 10.11L28.06 10.00ZM39.75 11.37L41.37 11.37L41.37 6.10L42.87 5.63C43.11 5.56 43.40 5.49 43.68 5.49C44.16 5.49 44.41 5.88 44.41 6.59L44.41 11.37L46.05 11.37L46.05 6.34C46.05 5.36 45.23 4.72 44.02 4.72C43.61 4.72 43.16 4.76 42.59 4.98L41.30 5.49L40.94 4.77L39.75 4.83ZM53.90 3.21L54.60 3.21C55.44 3.21 57.64 3.42 58.23 3.42L58.23 2.51L52.28 2.51L52.28 11.37L53.90 11.37L53.90 7.28L55.73 7.28C56.03 7.28 56.81 7.34 57.04 7.34L57.05 6.58L53.90 6.58ZM58.21 10.89C58.94 11.16 59.91 11.48 61.14 11.48C63.10 11.48 64.40 10.74 64.40 9.60C64.40 8.34 63.03 7.83 61.89 7.41C60.75 6.99 59.78 6.55 59.78 6.09C59.78 5.66 60.31 5.42 61.28 5.42C61.92 5.42 62.27 5.46 63.38 5.95L63.67 6.09L64.01 5.18C63.28 4.91 62.36 4.72 61.25 4.72C59.57 4.72 58.45 5.40 58.45 6.44C58.45 7.63 59.78 8.11 60.87 8.51C61.99 8.92 62.93 9.39 62.93 9.91C62.93 10.49 62.30 10.78 61.14 10.78C60.51 10.78 59.79 10.56 58.80 10.11L58.53 10.00ZM67.44 3.26L67.44 2.55C67.44 2.41 67.38 2.27 67.03 2.27L66.21 2.27C65.86 2.27 65.80 2.44 65.80 2.55L65.80 3.26C65.80 3.37 65.86 3.56 66.21 3.56L67.03 3.56C67.38 3.56 67.44 3.40 67.44 3.26ZM65.80 11.37L67.42 11.37L67.42 4.83L65.80 4.83Z"></path></g><defs data-v-423bf9ae=""><linearGradient data-v-423bf9ae="" gradientTransform="rotate(25)" id="4152828c-c488-4288-ba2c-b67cc31a5ba5" x1="0%" y1="0%" x2="100%" y2="0%"><stop data-v-423bf9ae="" offset="0%" style="stop-color: rgb(0, 21, 214); stop-opacity: 1;"></stop><stop data-v-423bf9ae="" offset="100%" style="stop-color: rgb(9, 137, 251); stop-opacity: 1;"></stop></linearGradient></defs><g data-v-423bf9ae="" id="99ef0f5c-6cd7-44de-99a6-0e215d1b310d" transform="matrix(1.9565217391304348,0,0,1.9565217391304348,-1.9565217391304373,-1.9565217391304373)" stroke="none" fill="url(#4152828c-c488-4288-ba2c-b67cc31a5ba5)"><path stroke-width="2" stroke-linecap="round" stroke-miterlimit="10" d="M23.727 45c0 1.1-.9 2-2 2H8.991c-1.1 0-2-.9-2-2V15.917c0-1.1.9-2 2-2h12.736c1.1 0 2 .9 2 2V45zM41.008 45c0 1.1-.9 2-2 2h-8.141c-1.1 0-2-.9-2-2V25.951c0-1.1.9-2 2-2h8.141c1.1 0 2 .9 2 2V45zM15.359 1v12.917"></path><g stroke="#000" stroke-width="2" stroke-linecap="round" stroke-miterlimit="10"><path d="M11.029 18.052V46.58M15.359 18.052V46.58M19.688 18.052V46.58"></path></g><g stroke="#000" stroke-width="2" stroke-linecap="round" stroke-miterlimit="10"><path d="M32.445 28.505h4.984M32.445 33.151h4.984M32.445 37.799h4.984M32.445 42.447h4.984"></path></g><path stroke="#000" stroke-width="2" stroke-linecap="round" stroke-miterlimit="10" d="M1 47h46"></path></g><!----></svg>