<?xml version="1.0" standalone="no"?><svg xmlns="http://www.w3.org/2000/svg" viewBox="0 0 1440 320"><path fill="#d2fdff" fill-opacity="1" d="M0,64L24,85.3C48,107,96,149,144,176C192,203,240,213,288,224C336,235,384,245,432,208C480,171,528,85,576,53.3C624,21,672,43,720,90.7C768,139,816,213,864,234.7C912,256,960,224,1008,197.3C1056,171,1104,149,1152,165.3C1200,181,1248,235,1296,261.3C1344,288,1392,288,1416,288L1440,288L1440,0L1416,0C1392,0,1344,0,1296,0C1248,0,1200,0,1152,0C1104,0,1056,0,1008,0C960,0,912,0,864,0C816,0,768,0,720,0C672,0,624,0,576,0C528,0,480,0,432,0C384,0,336,0,288,0C240,0,192,0,144,0C96,0,48,0,24,0L0,0Z"></path></svg>